<svg version="1.1" xmlns="http://www.w3.org/2000/svg" xmlns:xlink="http://www.w3.org/1999/xlink" viewBox="0 0 224 224"><g transform="translate(33.6,33.6) scale(0.7,0.7)"><g fill="none" fill-rule="nonzero" stroke="none" stroke-width="1" stroke-linecap="butt" stroke-linejoin="miter" stroke-miterlimit="10" stroke-dasharray="" stroke-dashoffset="0" font-family="none" font-weight="none" font-size="none" text-anchor="none" style="mix-blend-mode: normal"><path d="M0,224v-224h224v224z" fill="none"></path><g fill="#000000"><path d="M112,18.66667c-30.884,0 -56,25.116 -56,56h18.66667c0,-20.58933 16.744,-37.33333 37.33333,-37.33333c20.58933,0 37.33333,16.744 37.33333,37.33333c0,15.66133 -9.67239,25.18935 -20.87239,36.22135c-12.08667,11.9 -25.79427,25.38798 -25.79427,47.77865h18.66667c0,-14.57867 9.37082,-23.80335 20.21615,-34.47135c12.404,-12.208 26.45052,-26.04598 26.45052,-49.52865c0,-30.884 -25.116,-56 -56,-56zM102.66667,186.66667v18.66667h18.66667v-18.66667z"></path></g></g></g></svg>
